<svg width="31" height="37" fill="none" xmlns="http://www.w3.org/2000/svg"><g clip-path="url(#clip0_118_715)" fill="#11B24C"><path d="M10.562 23.775h-.824v3.708h.824c.405 0 .73-.138.969-.412.238-.275.36-.629.36-1.055v-.774c0-.426-.122-.773-.36-1.047-.239-.282-.564-.42-.969-.42z"/><path d="M23.418 20.66H-.09v9.677h19.967l3.541-9.676zM7.397 25.814c-.318.29-.752.427-1.308.427H4.998v1.915h-.846v-5.059H6.09c.556 0 .997.145 1.308.434.318.289.477.664.477 1.134 0 .484-.16.86-.477 1.15zm5.333.203c0 .636-.202 1.149-.6 1.546-.404.397-.925.6-1.568.6h-1.67v-5.059h1.67c.643 0 1.164.203 1.568.6.405.398.6.918.6 1.547v.765zm4.38-2.24h-2.393v1.546h2.038v.68h-2.038v2.16h-.845v-5.059h3.237v.672z"/><path d="M6.091 23.775H5v1.785h1.091c.311 0 .55-.086.708-.253a.879.879 0 00.239-.635c0-.26-.08-.47-.239-.644-.159-.166-.397-.253-.708-.253z"/><path d="M22.5.434H4.757a.965.965 0 00-.961.96v18.559h1.922V2.355H22.5v6.663h6.663v25.625H5.72v-3.599H3.797v4.56c0 .528.433.961.961.961h25.365a.965.965 0 00.961-.96V9.018L22.5.434z"/><path d="M26.597 12.386H8.285v1.417h18.312v-1.417zM23.7 15.14H8.284v1.416H23.7V15.14z"/></g><defs><clipPath id="clip0_118_715"><path fill="#fff" d="M0 0h31v37H0z"/></clipPath></defs></svg>